# xmcd
# 
# Track frame offsets:
#     150
#     18028
#     33405
#     53026
#     73207
#     83533
#     98554
#     121561
#     139384
#     158220
# 
# Disc length: 2268
# 
# Revision: 1
# Processed by: cddbd v1.5.2PL0 Copyright (c) Steve Scherf et al.
# Submitted via: fre:ac v1.0.31
# 
DISCID=7308da0a
DTITLE=Ian Noe - Between The Country
DYEAR=2019
DGENRE=Country
TTITLE0=Irene (ravin' bomb)
TTITLE1=Barbara's song
TTITLE2=Junk town
TTITLE3=Letter to madeline
TTITLE4=Loving you
TTITLE5=That kind of life
TTITLE6=Dead on the river (rolling down)
TTITLE7=If today doesn't do me in
TTITLE8=Meth head
TTITLE9=Between the country
EXTD=
EXTT0=
EXTT1=
EXTT2=
EXTT3=
EXTT4=
EXTT5=
EXTT6=
EXTT7=
EXTT8=
EXTT9=
PLAYORDER=
